<?xml version="1.0" encoding="UTF-8" standalone="no"?>
<!DOCTYPE svg PUBLIC "-//W3C//DTD SVG 1.1//EN" "http://www.w3.org/Graphics/SVG/1.1/DTD/svg11.dtd">
<!-- Created with Vectornator (http://vectornator.io/) -->
<svg height="100%" stroke-miterlimit="10" fill="currentColor" style="fill-rule:nonzero;clip-rule:evenodd;stroke-linecap:round;stroke-linejoin:round;" version="1.1" viewBox="0 0 1080 1080" width="100%" xml:space="preserve" xmlns="http://www.w3.org/2000/svg" xmlns:vectornator="http://vectornator.io" xmlns:xlink="http://www.w3.org/1999/xlink">
<defs/>
<g id="Layer-1" vectornator:layerName="Layer 1">
<g opacity="1">
<path d="M337.062 412C336.678 412.007 336.405 412.111 336.25 412.312C333.821 425.087 334.126 438.028 334.281 450.969C334.509 469.938 335.565 488.861 336.906 507.781C335.696 509.395 342.726 516.732 352.625 524.156C362.524 531.581 371.54 536.27 372.75 534.656C371.897 522.567 371.089 510.487 370.625 498.375C370.344 491.041 370.217 483.714 370.125 476.375C369.972 464.131 369.79 451.862 372.094 439.781C373.33 438.168 366.307 430.713 356.406 423.125C347.743 416.486 339.754 411.95 337.062 412Z" fill="#000000" stroke="none"/>
</g>
<g opacity="1">
<path d="M395.719 421.875C395.334 421.872 395.066 421.99 394.906 422.188C388.215 425.285 382.69 430.071 377.125 434.812C373.799 437.646 370.366 440.325 366.938 443.031C354.763 452.641 342.564 462.296 330.031 471.438C325.271 474.909 320.409 478.229 315.531 481.531C306.283 487.793 297.128 494.182 287.875 500.438C286.339 501.476 284.832 502.541 283.375 503.688C282.359 504.487 281.292 505.231 280.25 506C278.903 505.529 277.909 505.379 277.562 505.812C276.245 506.873 274.811 507.754 273.469 508.781C273.199 508.988 272.407 509.47 272.406 509.875C272.404 510.767 272.471 511.11 272.938 511.875C273.231 512.355 273.525 512.84 273.875 513.281C274.72 514.347 275.573 515.409 276.531 516.375C278.789 518.652 281.053 520.927 283.5 523C286.81 525.805 290.274 528.446 293.781 531C295.895 532.539 298.144 533.918 300.375 535.281C301.353 535.879 302.388 536.349 303.406 536.875C303.698 537.026 303.965 537.19 304.281 537.281C305.283 537.571 306.272 537.897 307.281 538.156C307.665 538.255 308.391 538.021 308.719 537.938C309.404 537.763 310.097 537.522 310.75 537.25C314.577 535.658 317.571 532.723 320.875 530.312C323.548 528.363 326.355 526.575 329.094 524.719C332.363 522.503 335.599 520.251 338.844 518C347.662 511.882 356.7 506.042 365.375 499.719C377.07 491.194 388.452 482.244 399.812 473.281C403.782 470.15 407.793 467.075 411.656 463.812C417.432 458.936 423.072 453.828 430 450.625C431.28 449.045 424.442 441.388 414.75 433.531C406.27 426.657 398.412 421.898 395.719 421.875Z" fill="#000000" stroke="none"/>
</g>
<g opacity="1">
<path d="M212.094 460.969C210.808 462.451 217.127 470.047 226.219 477.938C235.311 485.828 243.745 491.013 245.031 489.531C251.96 490.61 258.898 491.263 265.906 491.531C282.606 492.17 299.328 491.054 316.031 491.531C339.287 492.196 362.514 493.921 385.781 494.281C408.456 494.633 431.107 493.799 453.781 493.906C463.805 493.954 473.822 494.238 483.844 494.406C493.851 494.574 503.866 494.697 513.875 494.75C548.872 494.936 583.878 494.584 618.875 494.938C644.552 495.197 670.233 495.909 695.906 496.375C727.284 496.945 758.648 497.255 790.031 497.344C791.32 495.819 784.795 488.157 775.438 480.25C766.08 472.343 757.445 467.194 756.156 468.719C724.797 468.629 693.449 468.29 662.094 467.719C636.405 467.251 610.723 466.542 585.031 466.281C550.025 465.926 515.007 466.282 480 466.094C470.01 466.04 460.02 465.95 450.031 465.781C439.989 465.612 429.951 465.298 419.906 465.25C397.248 465.141 374.565 465.977 351.906 465.625C328.66 465.263 305.485 463.541 282.25 462.875C263.638 462.342 244.969 463.837 226.375 462.594C221.583 462.273 216.838 461.707 212.094 460.969Z" fill="#000000" stroke="none"/>
</g>
<g opacity="1">
<path d="M509.281 553.969C508.899 553.979 508.621 554.111 508.469 554.312C508.555 572.64 509.942 590.893 510.875 609.188C511.107 613.741 511.329 618.286 511.469 622.844C511.609 627.409 511.642 631.996 511.719 636.562C510.502 638.176 517.537 645.536 527.438 653C537.338 660.464 546.346 665.207 547.562 663.594C547.488 659.017 547.482 654.419 547.344 649.844C547.205 645.27 546.981 640.695 546.75 636.125C545.827 617.876 544.422 599.656 544.344 581.375C545.563 579.76 538.535 572.387 528.625 564.906C519.953 558.361 511.96 553.899 509.281 553.969Z" fill="#000000" stroke="none"/>
</g>
<g opacity="1">
<path d="M559.406 561.188C559.021 561.187 558.722 561.27 558.562 561.469C539.586 575.856 521.483 591.306 502.875 606.156C495.751 611.842 487.975 616.627 480.875 622.344C475.021 627.058 469.415 632.07 463.406 636.594C462.134 638.184 469.025 645.789 478.781 653.594C488.538 661.398 497.478 666.434 498.75 664.844C504.772 660.313 510.382 655.315 516.25 650.594C523.351 644.88 531.124 640.088 538.25 634.406C556.856 619.569 574.963 604.125 593.938 589.75C595.211 588.158 588.33 580.53 578.562 572.719C570.016 565.884 562.106 561.193 559.406 561.188Z" fill="#000000" stroke="none"/>
</g>
<g opacity="1">
<path d="M448 570.406C446.774 571.695 452.187 578.851 460.094 586.375C468 593.899 475.399 598.945 476.625 597.656C487.976 602.321 499.562 606.404 510.719 611.531C525.484 618.316 539.662 626.353 554.25 633.5C566.189 639.349 578.509 644.295 590.469 650.094C591.638 648.931 586.79 642.203 579.656 635.031C572.522 627.859 565.794 622.962 564.625 624.125C552.739 618.361 540.49 613.436 528.625 607.625C513.6 600.266 499.015 592.032 483.812 585.031C472.087 579.632 459.932 575.311 448 570.406Z" fill="#000000" stroke="none"/>
</g>
</g>
</svg>
