<?xml version="1.0" encoding="UTF-8"?>
<svg id="Layer_1" data-name="Layer 1" xmlns="http://www.w3.org/2000/svg" viewBox="0 0 363.98 831.83">
  <defs>
    <style>
      .cls-1 {
        fill: none;
        stroke: #231f20;
        stroke-miterlimit: 10;
      }

      .cls-2 {
        letter-spacing: .16em;
      }

      .cls-3 {
        letter-spacing: .16em;
      }

      .cls-4 {
        letter-spacing: .16em;
      }

      .cls-5 {
        letter-spacing: .16em;
      }

      .cls-6 {
        letter-spacing: .16em;
      }

      .cls-7 {
        letter-spacing: .16em;
      }

      .cls-8 {
        font-size: 24px;
        letter-spacing: .2em;
      }

      .cls-8, .cls-9, .cls-10, .cls-11, .cls-12, .cls-13, .cls-14 {
        fill: #231f20;
      }

      .cls-8, .cls-9, .cls-10, .cls-12, .cls-14 {
        font-family: TAYBigBirdRegular, 'TAY Big Bird';
      }

      .cls-15 {
        letter-spacing: .14em;
      }

      .cls-9 {
        letter-spacing: .2em;
      }

      .cls-9, .cls-11, .cls-12 {
        font-size: 14px;
      }

      .cls-10 {
        font-size: 8px;
      }

      .cls-11, .cls-13 {
        font-family: TAYWingmanRegular, 'TAY Wingman';
      }

      .cls-16 {
        letter-spacing: -.07em;
      }

      .cls-17 {
        letter-spacing: -.09em;
      }

      .cls-18 {
        letter-spacing: -.06em;
      }

      .cls-19 {
        letter-spacing: -.07em;
      }

      .cls-20 {
        letter-spacing: -.07em;
      }

      .cls-21 {
        letter-spacing: -.07em;
      }

      .cls-22 {
        letter-spacing: -.07em;
      }

      .cls-23 {
        letter-spacing: -.06em;
      }

      .cls-24 {
        letter-spacing: -.07em;
      }

      .cls-25 {
        letter-spacing: -.06em;
      }

      .cls-26 {
        letter-spacing: -.06em;
      }

      .cls-27 {
        letter-spacing: -.06em;
      }

      .cls-13 {
        font-size: 18px;
        letter-spacing: .2em;
      }

      .cls-14 {
        font-size: 10px;
      }

      .cls-28 {
        letter-spacing: -.05em;
      }

      .cls-29 {
        letter-spacing: -.05em;
      }

      .cls-30 {
        letter-spacing: -.04em;
      }

      .cls-31 {
        letter-spacing: .09em;
      }

      .cls-32 {
        letter-spacing: .1em;
      }

      .cls-33 {
        letter-spacing: .09em;
      }

      .cls-34 {
        letter-spacing: .1em;
      }

      .cls-35 {
        letter-spacing: .1em;
      }

      .cls-36 {
        letter-spacing: .09em;
      }

      .cls-37 {
        letter-spacing: .09em;
      }

      .cls-38 {
        letter-spacing: .09em;
      }

      .cls-39 {
        letter-spacing: .09em;
      }

      .cls-40 {
        letter-spacing: .09em;
      }

      .cls-41 {
        letter-spacing: .07em;
      }

      .cls-42 {
        letter-spacing: .07em;
      }

      .cls-43 {
        letter-spacing: .06em;
      }

      .cls-44 {
        letter-spacing: .08em;
      }

      .cls-45 {
        letter-spacing: .08em;
      }

      .cls-46 {
        letter-spacing: .06em;
      }

      .cls-47 {
        letter-spacing: .06em;
      }

      .cls-48 {
        letter-spacing: .11em;
      }

      .cls-49 {
        letter-spacing: .05em;
      }
    </style>
  </defs>
  <text class="cls-12" transform="translate(11.19 85.1)"><tspan class="cls-17" x="0" y="0">F</tspan><tspan x="7.39" y="0" xml:space="preserve">G             </tspan><tspan class="cls-29" x="79.92" y="0">2</tspan><tspan class="cls-28" x="89.01" y="0">0</tspan><tspan class="cls-29" x="97.45" y="0">2</tspan><tspan x="106.54" y="0">5</tspan></text>
  <text class="cls-12" transform="translate(11.19 103.1)"><tspan class="cls-24" x="0" y="0">A</tspan><tspan class="cls-21" x="7.43" y="0">R</tspan><tspan class="cls-30" x="14.83" y="0">R</tspan><tspan class="cls-24" x="22.64" y="0">A</tspan><tspan class="cls-23" x="30.07" y="0">N</tspan><tspan class="cls-27" x="39.09" y="0">G</tspan><tspan class="cls-26" x="47.77" y="0">I</tspan><tspan class="cls-23" x="52.71" y="0">N</tspan><tspan x="61.73" y="0" xml:space="preserve">G        !</tspan></text>
  <text class="cls-12" transform="translate(11.19 121.1)"><tspan x="0" y="0" xml:space="preserve">@   </tspan><tspan class="cls-20" x="20.75" y="0">F</tspan><tspan class="cls-16" x="28.49" y="0">L</tspan><tspan class="cls-20" x="36.46" y="0">E</tspan><tspan class="cls-27" x="44.39" y="0">U</tspan><tspan class="cls-19" x="52.68" y="0">R</tspan><tspan class="cls-18" x="60.03" y="0">G</tspan><tspan class="cls-24" x="68.74" y="0">A</tspan><tspan class="cls-21" x="76.17" y="0">R</tspan><tspan class="cls-25" x="83.57" y="0">N</tspan><tspan class="cls-22" x="92.71" y="0">I</tspan><tspan class="cls-21" x="97.52" y="0">S</tspan><tspan x="106.26" y="0">H</tspan></text>
  <text class="cls-13" transform="translate(158.8 256.1)"><tspan x="0" y="0" xml:space="preserve">Fleur    Garnish</tspan></text>
  <text class="cls-11" transform="translate(158.8 274.1)"><tspan class="cls-3" x="0" y="0">F</tspan><tspan class="cls-15" x="11.02" y="0">L</tspan><tspan class="cls-6" x="21.73" y="0">ORAL DESIGN WORK</tspan></text>
  <circle class="cls-1" cx="24.69" cy="44.6" r="13.5"/>
  <circle class="cls-1" cx="51.69" cy="44.6" r="13.5"/>
  <text class="cls-9" transform="translate(20.19 49.1)"><tspan x="0" y="0">F</tspan></text>
  <text class="cls-9" transform="translate(47.19 49.1)"><tspan x="0" y="0">G</tspan></text>
  <text class="cls-12" transform="translate(11.19 301.1)"><tspan class="cls-17" x="0" y="0">F</tspan><tspan x="7.39" y="0" xml:space="preserve">G             </tspan><tspan class="cls-29" x="79.92" y="0">2</tspan><tspan class="cls-28" x="89.01" y="0">0</tspan><tspan class="cls-29" x="97.45" y="0">2</tspan><tspan x="106.54" y="0">5</tspan></text>
  <text class="cls-12" transform="translate(11.19 319.1)"><tspan class="cls-24" x="0" y="0">A</tspan><tspan class="cls-21" x="7.43" y="0">R</tspan><tspan class="cls-30" x="14.83" y="0">R</tspan><tspan class="cls-24" x="22.64" y="0">A</tspan><tspan class="cls-23" x="30.07" y="0">N</tspan><tspan class="cls-27" x="39.09" y="0">G</tspan><tspan class="cls-26" x="47.77" y="0">I</tspan><tspan class="cls-23" x="52.71" y="0">N</tspan><tspan x="61.73" y="0" xml:space="preserve">G        !</tspan></text>
  <text class="cls-12" transform="translate(11.19 337.1)"><tspan x="0" y="0" xml:space="preserve">@   </tspan><tspan class="cls-20" x="20.75" y="0">F</tspan><tspan class="cls-16" x="28.49" y="0">L</tspan><tspan class="cls-20" x="36.46" y="0">E</tspan><tspan class="cls-27" x="44.39" y="0">U</tspan><tspan class="cls-19" x="52.68" y="0">R</tspan><tspan class="cls-18" x="60.03" y="0">G</tspan><tspan class="cls-24" x="68.74" y="0">A</tspan><tspan class="cls-21" x="76.17" y="0">R</tspan><tspan class="cls-25" x="83.57" y="0">N</tspan><tspan class="cls-22" x="92.71" y="0">I</tspan><tspan class="cls-21" x="97.52" y="0">S</tspan><tspan x="106.26" y="0">H</tspan></text>
  <path class="cls-1" d="M65.22,260.66c0,3.78-3.46,7.5-9.16,10.01-8.59,3.93-21.8,4.44-31.15,1.65-15.72-4.31-19.39-16.24-2.8-22.52,10.31-3.75,23.22-3.65,33.36.47,4.48,1.91,9.56,5.19,9.74,10.26v.13Z"/>
  <text class="cls-8" transform="translate(25.88 268.91)"><tspan x="0" y="0">F</tspan></text>
  <text class="cls-8" transform="translate(35.65 268.87)"><tspan x="0" y="0">G</tspan></text>
  <path class="cls-1" d="M360.5,471.33v180c0,9.94-4.03,18.94-10.55,25.45-6.51,6.52-15.51,10.55-25.45,10.55s-18.94,4.03-25.46,10.54c-6.51,6.52-10.54,15.52-10.54,25.46s-4.03,18.94-10.54,25.46c-6.52,6.51-15.52,10.54-25.46,10.54h-72c-19.88,0-36-16.12-36-36,0-9.94-4.03-18.94-10.54-25.46-6.52-6.51-15.52-10.54-25.46-10.54H36.5c-19.88,0-36-16.12-36-36v-180h360Z"/>
  <path class="cls-1" d="M83.19,58.1V22.1c0-1.99.81-3.79,2.11-5.09,1.3-1.3,3.1-2.11,5.09-2.11s3.79-.81,5.09-2.11c1.3-1.3,2.11-3.1,2.11-5.09s.81-3.79,2.11-5.09c1.3-1.3,3.1-2.11,5.09-2.11h14.4c3.98,0,7.2,3.22,7.2,7.2,0,1.99.81,3.79,2.11,5.09,1.3,1.3,3.1,2.11,5.09,2.11h14.4c3.98,0,7.2,3.22,7.2,7.2v36h-72Z"/>
  <path class="cls-1" d="M36.5,687.33H.5v-36c0,19.88,16.12,36,36,36Z"/>
  <path class="cls-1" d="M360.5,651.33v36h-36c9.94,0,18.94-4.03,25.45-10.55,6.52-6.51,10.55-15.51,10.55-25.45Z"/>
  <path class="cls-1" d="M36.5,687.33c-9.94,0-18.94,4.03-25.46,10.54-6.51,6.52-10.54,15.52-10.54,25.46v-36h36Z"/>
  <path class="cls-1" d="M360.5,687.33v144H.5v-108c0-9.94,4.03-18.94,10.54-25.46,6.52-6.51,15.52-10.54,25.46-10.54h72c9.94,0,18.94,4.03,25.46,10.54,6.51,6.52,10.54,15.52,10.54,25.46,0,19.88,16.12,36,36,36h72c9.94,0,18.94-4.03,25.46-10.54,6.51-6.52,10.54-15.52,10.54-25.46s4.03-18.94,10.54-25.46c6.52-6.51,15.52-10.54,25.46-10.54h36Z"/>
  <path class="cls-1" d="M155.19,245.3v28.8h-72v-21.6c0-1.99.81-3.79,2.11-5.09,1.3-1.3,3.1-2.11,5.09-2.11h14.4c1.99,0,3.79.81,5.09,2.11,1.3,1.3,2.11,3.1,2.11,5.09,0,3.98,3.22,7.2,7.2,7.2h14.4c1.99,0,3.79-.81,5.09-2.11,1.3-1.3,2.11-3.1,2.11-5.09s.81-3.79,2.11-5.09c1.3-1.3,3.1-2.11,5.09-2.11h7.2Z"/>
  <text class="cls-14" transform="translate(155.19 121.1)"><tspan class="cls-36" x="0" y="0">I</tspan><tspan class="cls-31" x="4.95" y="0">A</tspan><tspan class="cls-2" x="11.86" y="0">N </tspan><tspan class="cls-44" x="25.61" y="0">C</tspan><tspan class="cls-45" x="32.94" y="0">A</tspan><tspan class="cls-42" x="39.76" y="0">S</tspan><tspan class="cls-43" x="47.36" y="0">T</tspan><tspan class="cls-33" x="53.75" y="0">O</tspan><tspan class="cls-38" x="60.69" y="0">R</tspan><tspan class="cls-35" x="67.57" y="0">I</tspan><tspan class="cls-36" x="72.7" y="0">L</tspan><tspan class="cls-46" x="79.99" y="0">L</tspan><tspan class="cls-7" x="86.98" y="0">O</tspan></text>
  <text class="cls-14" transform="translate(155.19 337.1)"><tspan class="cls-36" x="0" y="0">I</tspan><tspan class="cls-31" x="4.95" y="0">A</tspan><tspan class="cls-2" x="11.86" y="0">N </tspan><tspan class="cls-44" x="25.61" y="0">C</tspan><tspan class="cls-45" x="32.94" y="0">A</tspan><tspan class="cls-42" x="39.76" y="0">S</tspan><tspan class="cls-43" x="47.36" y="0">T</tspan><tspan class="cls-33" x="53.75" y="0">O</tspan><tspan class="cls-38" x="60.69" y="0">R</tspan><tspan class="cls-35" x="67.57" y="0">I</tspan><tspan class="cls-36" x="72.7" y="0">L</tspan><tspan class="cls-46" x="79.99" y="0">L</tspan><tspan class="cls-7" x="86.98" y="0">O</tspan></text>
  <text class="cls-14" transform="translate(254.29 283.1)"><tspan class="cls-40" x="0" y="0">f</tspan><tspan class="cls-47" x="7.13" y="0">l</tspan><tspan class="cls-32" x="14.12" y="0">o</tspan><tspan class="cls-39" x="21.06" y="0">r</tspan><tspan class="cls-32" x="27.94" y="0">i</tspan><tspan class="cls-41" x="32.98" y="0">s</tspan><tspan class="cls-2" x="40.58" y="0">t </tspan><tspan class="cls-41" x="52.99" y="0">s</tspan><tspan class="cls-49" x="60.59" y="0">t</tspan><tspan class="cls-44" x="66.8" y="0">a</tspan><tspan class="cls-34" x="73.59" y="0">g</tspan><tspan class="cls-4" x="81.39" y="0">e </tspan><tspan class="cls-48" x="94.4" y="0">0</tspan><tspan class="cls-2" x="102.08" y="0">1</tspan></text>
  <text class="cls-14" transform="translate(254.29 67.1)"><tspan class="cls-40" x="0" y="0">f</tspan><tspan class="cls-47" x="7.13" y="0">l</tspan><tspan class="cls-32" x="14.12" y="0">o</tspan><tspan class="cls-39" x="21.06" y="0">r</tspan><tspan class="cls-32" x="27.94" y="0">i</tspan><tspan class="cls-41" x="32.98" y="0">s</tspan><tspan class="cls-2" x="40.58" y="0">t </tspan><tspan class="cls-41" x="52.99" y="0">s</tspan><tspan class="cls-49" x="60.59" y="0">t</tspan><tspan class="cls-44" x="66.8" y="0">a</tspan><tspan class="cls-34" x="73.59" y="0">g</tspan><tspan class="cls-4" x="81.39" y="0">e </tspan><tspan class="cls-48" x="94.4" y="0">0</tspan><tspan class="cls-2" x="102.08" y="0">1</tspan></text>
  <text class="cls-10" transform="translate(62.35 250.37)"><tspan class="cls-37" x="0" y="0">t</tspan><tspan class="cls-5" x="5.34" y="0">m</tspan></text>
  <text class="cls-10" transform="translate(66.63 34.65)"><tspan class="cls-37" x="0" y="0">t</tspan><tspan class="cls-5" x="5.34" y="0">m</tspan></text>
  <text class="cls-10" transform="translate(353.19 245.81)"><tspan class="cls-37" x="0" y="0">t</tspan><tspan class="cls-5" x="5.34" y="0">m</tspan></text>
  <text class="cls-13" transform="translate(158.8 40.1)"><tspan x="0" y="0" xml:space="preserve">Fleur    Garnish</tspan></text>
  <text class="cls-11" transform="translate(158.8 58.1)"><tspan class="cls-3" x="0" y="0">F</tspan><tspan class="cls-15" x="11.02" y="0">L</tspan><tspan class="cls-6" x="21.73" y="0">ORAL DESIGN WORK</tspan></text>
  <text class="cls-10" transform="translate(353.19 29.81)"><tspan class="cls-37" x="0" y="0">t</tspan><tspan class="cls-5" x="5.34" y="0">m</tspan></text>
</svg>